<svg width="200" height="200" viewBox="0 0 200 200" xmlns="http://www.w3.org/2000/svg">
  <!-- Hex frame -->
  <path
    fill="none"
    stroke="currentColor"
    stroke-width="6.75668"
    transform="matrix(1.7760201,0,0,1.7760201,-32.924208,-82.846169)"
    d="m 31.542594,126.76095 10e-7,-47.616389 a 2.0642639,2.0642639 120 0 1 1.032132,-1.787705 L 73.811734,53.54866 a 2.0642639,2.0642639 1.2609945e-6 0 1 2.064263,0 L 117.113,77.356858 a 2.0642639,2.0642639 60.000001 0 1 1.03214,1.787705 l -1e-5,47.616397 a 2.0642639,2.0642639 120 0 1 -1.03213,1.7877 l -41.237005,23.8082 a 2.0642639,2.0642639 1.2609945e-6 0 1 -2.064264,0 l -41.237005,-23.8082 a 2.0642639,2.0642639 60.000001 0 1 -1.032132,-1.78771 z"
  />
  <!-- Group of people -->
  <path
    fill="currentColor"
    stroke="none"
    d="M 100.0001,63.561495 A 22.380596,18.858206 0 0 0 77.619552,82.419775 22.380596,18.858206 0 0 0 91.90085,100.0001 H 74.084367 a 10.583333,10.583333 0 0 0 -9.406144,5.73195 H 54.693302 A 15.179808,12.79072 0 0 0 64.379533,93.807711 15.179808,12.79072 0 0 0 49.199581,81.017277 15.179808,12.79072 0 0 0 34.019629,93.807711 15.179808,12.79072 0 0 0 43.706376,105.73205 H 31.621842 a 7.1782253,7.1782253 0 0 0 -7.177856,7.17785 v 30.81569 a 7.1782253,7.1782253 0 0 0 7.177856,7.17889 h 4.8457 l 61.699593,36.83807 70.210185,-35.95853 a 7.1782253,7.1782253 0 0 0 7.17837,-7.17838 v -30.81569 a 7.1782253,7.1782253 0 0 0 -7.17837,-7.17837 H 156.2933 a 15.179808,12.79072 0 0 0 9.68623,-11.92382 15.179808,12.79072 0 0 0 -15.17995,-12.790433 15.179808,12.79072 0 0 0 -15.17995,12.790433 15.179808,12.79072 0 0 0 9.68675,11.92382 h -9.58081 a 10.583333,10.583333 0 0 0 -9.80974,-6.61148 h -17.81649 a 22.380596,18.858206 0 0 0 14.2813,-17.580325 22.380596,18.858206 0 0 0 -22.38054,-18.85828 z"
  />
</svg>
