<?xml version="1.0" encoding="UTF-8" standalone="no"?>
<svg
   viewBox="0 0 200 200"
   version="1.1"
   id="svg1"
   xmlns="http://www.w3.org/2000/svg">
  <!-- Hexagonal border -->
  <g id="layer3">
    <path
       style="fill:none;stroke:currentColor;stroke-width:6.75668;stroke-dasharray:none;paint-order:markers stroke fill"
       id="path2"
       transform="matrix(1.7760201,0,0,1.7760201,-32.924208,-82.846169)"
       d="m 31.542594,126.76095 10e-7,-47.616389 a 2.0642639,2.0642639 120 0 1 1.032132,-1.787705 L 73.811734,53.54866 a 2.0642639,2.0642639 1.2609945e-6 0 1 2.064263,0 L 117.113,77.356858 a 2.0642639,2.0642639 60.000001 0 1 1.03214,1.787705 l -1e-5,47.616397 a 2.0642639,2.0642639 120 0 1 -1.03213,1.7877 l -41.237005,23.8082 a 2.0642639,2.0642639 1.2609945e-6 0 1 -2.064264,0 l -41.237005,-23.8082 a 2.0642639,2.0642639 60.000001 0 1 -1.032132,-1.78771 z" />
  </g>
  <!-- Link icon (chain links) -->
  <g id="layer7">
    <path
       style="fill:none;stroke:currentColor;stroke-width:10.0387;stroke-linecap:round;stroke-linejoin:round;stroke-dasharray:none;paint-order:markers stroke fill"
       id="rect38"
       d="m 96.192558,46.978924 h 2.128727 a 12,12 45 0 1 12.000005,12 V 95.418098 A 12,12 135 0 1 98.321285,107.4181 h -2.128727 a 12,12 45 0 1 -12,-12.000002 V 58.978924 a 12,12 135 0 1 12,-12 z"
       transform="matrix(1.0352287,0.59768954,-0.59768954,1.0352287,63.648806,-53.109251)" />
    <path
       style="fill:none;stroke:currentColor;stroke-width:10.0387;stroke-linecap:round;stroke-linejoin:round;stroke-dasharray:none;paint-order:markers stroke fill"
       id="path39"
       d="m 96.192558,46.978924 h 2.128727 a 12,12 45 0 1 12.000005,12 V 95.418098 A 12,12 135 0 1 98.321285,107.4181 h -2.128727 a 12,12 45 0 1 -12,-12.000002 V 58.978924 a 12,12 135 0 1 12,-12 z"
       transform="matrix(1.0352287,0.59768954,-0.59768954,1.0352287,27.266366,-22.985868)" />
  </g>
</svg>
