<?xml version="1.0" encoding="UTF-8" standalone="no"?>
<svg
   viewBox="0 0 200 200"
   version="1.1"
   id="svg1"
   xmlns="http://www.w3.org/2000/svg">
  <!-- Hexagonal border -->
  <g id="layer3">
    <path
       style="fill:none;stroke:currentColor;stroke-width:6.75668;stroke-dasharray:none;paint-order:markers stroke fill"
       id="path2"
       transform="matrix(1.7760201,0,0,1.7760201,-32.924208,-82.846169)"
       d="m 31.542594,126.76095 10e-7,-47.616389 a 2.0642639,2.0642639 120 0 1 1.032132,-1.787705 L 73.811734,53.54866 a 2.0642639,2.0642639 1.2609945e-6 0 1 2.064263,0 L 117.113,77.356858 a 2.0642639,2.0642639 60.000001 0 1 1.03214,1.787705 l -1e-5,47.616397 a 2.0642639,2.0642639 120 0 1 -1.03213,1.7877 l -41.237005,23.8082 a 2.0642639,2.0642639 1.2609945e-6 0 1 -2.064264,0 l -41.237005,-23.8082 a 2.0642639,2.0642639 60.000001 0 1 -1.032132,-1.78771 z" />
  </g>
  <!-- Note icon -->
  <g id="layer5">
    <path
       id="rect22"
       style="fill:none;stroke:currentColor;stroke-width:9.96925;stroke-linecap:round;stroke-linejoin:round;stroke-dasharray:none;paint-order:markers stroke fill"
       d="M 58.099813,58.099813 V 164.60959 l 40.067322,23.13296 a 3.6661742,3.6661742 0 0 0 1.832965,0.49144 3.6661742,3.6661742 0 0 0 1.83296,-0.49144 l 40.06681,-23.13244 V 58.099813 Z" />
    <path
       id="rect23"
       style="fill:currentColor;stroke:none;stroke-width:7.99999;stroke-linecap:round;stroke-linejoin:round;stroke-dasharray:none;paint-order:markers stroke fill"
       d="m 99.835522,71.941196 4.580248,21.621307 40.13554,69.516797 11.8542,-6.84402 -40.13554,-69.516802 z" />
    <path
       style="fill:none;stroke:currentColor;stroke-width:4;stroke-linecap:round;stroke-linejoin:round;stroke-dasharray:none;paint-order:markers stroke fill"
       d="M 70.735255,71.689577 H 129.26474"
       id="path23" />
    <path
       style="fill:none;stroke:currentColor;stroke-width:4;stroke-linecap:round;stroke-linejoin:round;stroke-dasharray:none;paint-order:markers stroke fill"
       d="M 70.735255,85.844789 H 129.26474"
       id="path24" />
    <path
       style="fill:none;stroke:currentColor;stroke-width:4;stroke-linecap:round;stroke-linejoin:round;stroke-dasharray:none;paint-order:markers stroke fill"
       d="M 70.735255,100 H 129.26474"
       id="path25" />
  </g>
</svg>
